<?xml version="1.0" standalone="no"?><!DOCTYPE svg PUBLIC "-//W3C//DTD SVG 1.1//EN" "http://www.w3.org/Graphics/SVG/1.1/DTD/svg11.dtd"><svg class="icon" width="200px" height="200.00px" viewBox="0 0 1024 1024" version="1.1" xmlns="http://www.w3.org/2000/svg"><path d="M931.8 88.6c0 22.6-18.3 41-41 41H120.5c-22.6 0-41-18.3-41-41 0-22.6 18.3-41 41-41h770.3c22.6 0 41 18.4 41 41zM931.8 941.2c0 22.6-18.3 41-41 41H120.5c-22.6 0-41-18.3-41-41 0-22.6 18.3-41 41-41h770.3c22.6 0 41 18.4 41 41zM720.6 852.1c0 22.6-18.3 41-41 41h-348c-22.6 0-41-18.3-41-41 0-22.6 18.3-41 41-41h348.1c22.6 0.1 40.9 18.4 40.9 41zM505.6 569c22.6 0 41 18.3 41 41v80c0 22.6-18.3 41-41 41-22.6 0-41-18.3-41-41v-80.1c0.1-22.6 18.4-40.9 41-40.9zM505.6 391c22.6 0 41 18.3 41 41 0 22.6-18.3 41-41 41-22.6 0-41-18.3-41-41 0.1-22.7 18.4-41 41-41z" fill="#242424" /><path d="M214.9 55.8c22.6 0 41 18.3 41 41v149.1c0 22.6-18.3 41-41 41-22.6 0-41-18.3-41-41V96.8c0-22.6 18.4-41 41-41zM793 55.8c22.6 0 41 18.3 41 41v149.1c0 22.6-18.3 41-41 41-22.6 0-41-18.3-41-41V96.8c0-22.6 18.3-41 41-41zM214.9 966.6c22.6 0 41-18.3 41-41v-131c0-22.6-18.3-41-41-41-22.6 0-41 18.3-41 41v131c0 22.6 18.4 41 41 41zM793 966.6c22.6 0 41-18.3 41-41v-131c0-22.6-18.3-41-41-41-22.6 0-41 18.3-41 41v131c0 22.6 18.3 41 41 41z" fill="#242424" /><path d="M443.3 478.2c-107.7-27.1-187.4-124.5-187.4-240.6v-3.5H174v3.5c0 161.5 116.1 295.9 269.3 324.4v-83.8zM833.9 234.1H752v3.5c0 116.3-80.1 213.9-188.1 240.7v83.8c153.6-28.2 270-162.8 270-324.5v-3.5z" fill="#242424" /><path d="M443.4 561.9v-83.8C290.1 506.6 174 641 174 802.5v3.5h82v-3.5c-0.1-116 79.7-213.5 187.4-240.6zM564 478v83.8c108 26.8 188.1 124.4 188.1 240.7v3.5H834v-3.5c0-161.7-116.4-296.3-270-324.5z" fill="#242424" /><path d="M414.805105 551.965894a42 42 0 1 0 54.565898-63.863626 42 42 0 1 0-54.565898 63.863626Z" fill="#242424" /><path d="M541.039233 552.099941a42 42 0 1 0 54.565898-63.863626 42 42 0 1 0-54.565898 63.863626Z" fill="#242424" /></svg>