<?xml version="1.0" standalone="no"?><!DOCTYPE svg PUBLIC "-//W3C//DTD SVG 1.1//EN" "http://www.w3.org/Graphics/SVG/1.1/DTD/svg11.dtd"><svg t="1646363589703" class="icon" viewBox="0 0 1024 1024" version="1.1" xmlns="http://www.w3.org/2000/svg" p-id="2884" xmlns:xlink="http://www.w3.org/1999/xlink" width="200" height="200"><defs><style type="text/css"></style></defs><path d="M387.289674 263.516696c-17.246803 0-31.221072 13.974269-31.221072 31.221072l0 31.220049c0 17.246803 13.974269 31.221072 31.221072 31.221072s31.220049-13.974269 31.220049-31.221072l0-31.220049C418.509722 277.490965 404.536476 263.516696 387.289674 263.516696z" p-id="2885"></path><path d="M637.054157 263.516696c-17.246803 0-31.221072 13.974269-31.221072 31.221072l0 31.220049c0 17.246803 13.974269 31.221072 31.221072 31.221072s31.221072-13.974269 31.221072-31.221072l0-31.220049C668.274206 277.490965 654.299937 263.516696 637.054157 263.516696z" p-id="2886"></path><path d="M588.933183 401.13296c-14.522762-9.28855-33.822316-5.081739-43.131333 9.451256-0.121773 0.193405-13.374612 19.441794-33.954323 19.441794-19.980054 0-32.410154-18.090007-33.253358-19.35993-9.166777-14.421454-28.243251-18.801205-42.816155-9.766434-14.644535 9.106402-19.147082 28.354791-10.050913 42.999326 11.209296 18.038842 41.952484 48.569182 86.120426 48.569182 43.934628 0 75.063603-30.296003 86.536912-48.202838C607.683223 429.751764 603.455945 410.432767 588.933183 401.13296z" p-id="2887"></path><path d="M866.426195 172.243923c-1.137916-0.020466-2.225691-0.020466-3.353374 0.010233l-66.181305 0L796.891516 110.066815c0-17.246803-13.974269-31.220049-31.220049-31.220049L375.210567 78.846766c-17.246803 0-31.220049 13.974269-31.220049 31.220049s13.974269 31.220049 31.220049 31.220049l359.239827 0 0 306.981626c0 122.463146-99.627045 222.100424-222.091214 222.100424s-222.091214-99.637278-222.091214-222.100424l0-338.202699c0-17.246803-13.974269-31.220049-31.220049-31.220049s-31.220049 13.974269-31.220049 31.220049l0 62.187341-66.567092 0c-1.14815-0.040932-2.347464-0.020466-3.882424 0-51.221592 0-92.889597 41.678238-92.889597 92.910063 0 24.695448 9.593496 47.918359 27.02347 65.459874l135.502114 145.919371c0.757247 0.816598 1.638313 1.429559 2.459005 2.145873 14.134929 132.37489 119.401414 237.868549 251.665787 252.374938l0 152.291498L337.659323 883.354749c-17.246803 0-31.220049 13.974269-31.220049 31.220049s13.974269 31.221072 31.220049 31.221072l349.401762 0c17.246803 0 31.220049-13.974269 31.220049-31.221072s-13.974269-31.220049-31.220049-31.220049L543.580253 883.354749 543.580253 731.063251c132.3841-14.520715 237.729379-120.18936 251.710812-252.734118 0.674359-0.610914 1.416256-1.107217 2.047636-1.786693L932.840814 330.62307c17.428951-17.541515 27.013237-40.753169 27.013237-65.459874C959.854051 213.932394 918.186046 172.254156 866.426195 172.243923zM136.869251 287.714817c-0.294712-0.315178-0.589424-0.620124-0.89437-0.925069-5.833869-5.792936-9.045003-13.465686-9.045003-21.626553 0-16.799618 13.659091-30.468942 30.448476-30.468942l1.564635-0.051165c0.568958 0.030699 1.14815 0.051165 1.717108 0.051165l67.166749 0 0 150.971433L136.869251 287.714817zM888.37816 286.789749c-0.304945 0.304945-0.599657 0.60989-0.89437 0.925069l-90.592274 97.556896L796.891516 234.695277l66.791196 0c0.568958 0 1.016143 0.020466 1.574868-0.020466l1.706875 0.020466c16.789385 0 30.448476 13.669324 30.448476 30.468942C897.41293 273.324062 894.201795 281.007045 888.37816 286.789749z" p-id="2888"></path></svg>