<?xml version="1.0" standalone="no"?><!DOCTYPE svg PUBLIC "-//W3C//DTD SVG 1.1//EN" "http://www.w3.org/Graphics/SVG/1.1/DTD/svg11.dtd"><svg class="icon" width="200px" height="200.00px" viewBox="0 0 1024 1024" version="1.1" xmlns="http://www.w3.org/2000/svg"><path d="M1015.2 395.2c-4-12.8-17.6-19.2-30.4-15.2l-17.6 5.6C772 376.8 602.4 252.8 534.4 69.6c-4.8-12.8-18.4-18.4-31.2-14.4-12.8 4.8-18.4 18.4-14.4 31.2C552 255.2 693.6 378.4 864 419.2l-148 48.8c-67.2-32.8-128-76-180-130.4V272c0-13.6-10.4-24-24-24s-24 10.4-24 24v65.6c-25.6 26.4-53.6 51.2-83.2 72.8-10.4 8-12.8 23.2-5.6 33.6 8 10.4 22.4 12.8 33.6 5.6 19.2-13.6 37.6-28.8 55.2-44.8v122.4L159.2 419.2c53.6-12.8 104.8-33.6 152-62.4 11.2-7.2 15.2-21.6 8-32.8-7.2-11.2-21.6-15.2-32.8-8-69.6 42.4-148.8 66.4-229.6 69.6l-17.6-5.6c-12.8-4-26.4 2.4-30.4 15.2-4 12.8 2.4 26.4 15.2 30.4l21.6 6.4c34.4 27.2 64 59.2 89.6 95.2 25.6 36 46.4 76 61.6 118.4 15.2 41.6 24 84.8 27.2 129.6 0.8 12.8 11.2 22.4 24 22.4h1.6c13.6-0.8 23.2-12.8 22.4-25.6-3.2-48.8-13.6-96-29.6-142.4-16.8-46.4-39.2-90.4-68-130.4-8-11.2-16.8-22.4-25.6-33.6L296 514.4c35.2 65.6 57.6 136 67.2 209.6l-184 253.6c-8 10.4-5.6 25.6 5.6 33.6 4 3.2 8.8 4.8 14.4 4.8 7.2 0 14.4-3.2 19.2-9.6l32.8-45.6c159.2-101.6 362.4-100.8 520.8 0.8v0.8l32 44.8c4.8 6.4 12 9.6 19.2 9.6 4.8 0 9.6-1.6 14.4-4.8 10.4-8 12.8-22.4 5.6-33.6l-26.4-36.8v-1.6c-52.8-187.2 10.4-385.6 161.6-507.2l20.8-6.4c12.8-5.6 20-18.4 16-31.2zM550.4 572.8L664 535.2c-19.2 43.2-33.6 88-43.2 134.4l-70.4-96.8z m101.6-84L536 527.2V404c36 32.8 74.4 60.8 116 84.8z m-292.8 46.4l137.6 44.8L580.8 696c-45.6-4.8-92-4.8-138.4 0l32.8-44.8c8-10.4 5.6-25.6-5.6-33.6-10.4-8-25.6-5.6-33.6 5.6l-33.6 46.4c-9.6-46.4-24-91.2-43.2-134.4z m399.2 361.6c-138.4-72-301.6-80-444.8-22.4l90.4-124.8c71.2-12 144.8-12 216 0l44 60.8c4.8 6.4 12 9.6 19.2 9.6 4.8 0 9.6-1.6 14.4-4.8 10.4-8 12.8-22.4 5.6-33.6l-42.4-58.4c9.6-73.6 32.8-144 67.2-209.6l148-48.8c-100 120-144 277.6-117.6 432z" fill="#444B54" /><path d="M384 272m-24 0a24 24 0 1 0 48 0 24 24 0 1 0-48 0Z" fill="#444B54" /></svg>